TITLE ""
FILE "Disc1Track41.mp3" MP3
  TRACK 01 AUDIO
    TITLE "Disc1Track41_01"
    INDEX 01 00:00:00
  TRACK 02 AUDIO
    TITLE "Disc1Track41_02"
    INDEX 01 00:01:14
  TRACK 03 AUDIO
    TITLE "Disc1Track41_03"
    INDEX 01 00:05:23
  TRACK 04 AUDIO
    TITLE "Disc1Track41_04"
    INDEX 01 00:06:46
  TRACK 05 AUDIO
    TITLE "Disc1Track41_05"
    INDEX 01 00:11:36
  TRACK 06 AUDIO
    TITLE "Disc1Track41_06"
    INDEX 01 00:11:69
  TRACK 07 AUDIO
    TITLE "Disc1Track41_07"
    INDEX 01 00:13:29
  TRACK 08 AUDIO
    TITLE "Disc1Track41_08"
    INDEX 01 00:14:59
  TRACK 09 AUDIO
    TITLE "Disc1Track41_09"
    INDEX 01 00:16:21
  TRACK 10 AUDIO
    TITLE "Disc1Track41_10"
    INDEX 01 00:22:04
  TRACK 11 AUDIO
    TITLE "Disc1Track41_11"
    INDEX 01 00:22:33
  TRACK 12 AUDIO
    TITLE "Disc1Track41_12"
    INDEX 01 00:24:07
  TRACK 13 AUDIO
    TITLE "Disc1Track41_13"
    INDEX 01 00:25:34
  TRACK 14 AUDIO
    TITLE "Disc1Track41_14"
    INDEX 01 00:27:05
  TRACK 15 AUDIO
    TITLE "Disc1Track41_15"
    INDEX 01 00:32:08
  TRACK 16 AUDIO
    TITLE "Disc1Track41_16"
    INDEX 01 00:32:40
  TRACK 17 AUDIO
    TITLE "Disc1Track41_17"
    INDEX 01 00:33:67
  TRACK 18 AUDIO
    TITLE "Disc1Track41_18"
    INDEX 01 00:35:07
  TRACK 19 AUDIO
    TITLE "Disc1Track41_19"
    INDEX 01 00:36:34
  TRACK 20 AUDIO
    TITLE "Disc1Track41_20"
    INDEX 01 00:41:70
  TRACK 21 AUDIO
    TITLE "Disc1Track41_21"
    INDEX 01 00:42:26
  TRACK 22 AUDIO
    TITLE "Disc1Track41_22"
    INDEX 01 00:43:67
  TRACK 23 AUDIO
    TITLE "Disc1Track41_23"
    INDEX 01 00:46:18
  TRACK 24 AUDIO
    TITLE "Disc1Track41_24"
    INDEX 01 00:47:59
  TRACK 25 AUDIO
    TITLE "Disc1Track41_25"
    INDEX 01 00:49:73
  TRACK 26 AUDIO
    TITLE "Disc1Track41_26"
    INDEX 01 00:50:30
  TRACK 27 AUDIO
    TITLE "Disc1Track41_27"
    INDEX 01 00:51:68
  TRACK 28 AUDIO
    TITLE "Disc1Track41_28"
    INDEX 01 00:54:67
  TRACK 29 AUDIO
    TITLE "Disc1Track41_29"
    INDEX 01 00:56:32
  TRACK 30 AUDIO
    TITLE "Disc1Track41_30"
    INDEX 01 00:58:39
  TRACK 31 AUDIO
    TITLE "Disc1Track41_31"
    INDEX 01 00:58:68
  TRACK 32 AUDIO
    TITLE "Disc1Track41_32"
    INDEX 01 01:00:26
  TRACK 33 AUDIO
    TITLE "Disc1Track41_33"
    INDEX 01 01:03:03
  TRACK 34 AUDIO
    TITLE "Disc1Track41_34"
    INDEX 01 01:04:34
  TRACK 35 AUDIO
    TITLE "Disc1Track41_35"
    INDEX 01 01:08:22
  TRACK 36 AUDIO
    TITLE "Disc1Track41_36"
    INDEX 01 01:08:53
  TRACK 37 AUDIO
    TITLE "Disc1Track41_37"
    INDEX 01 01:10:23
  TRACK 38 AUDIO
    TITLE "Disc1Track41_38"
    INDEX 01 01:11:67
  TRACK 39 AUDIO
    TITLE "Disc1Track41_39"
    INDEX 01 01:13:37
  TRACK 40 AUDIO
    TITLE "Disc1Track41_40"
    INDEX 01 01:17:54
  TRACK 41 AUDIO
    TITLE "Disc1Track41_41"
    INDEX 01 01:18:10
  TRACK 42 AUDIO
    TITLE "Disc1Track41_42"
    INDEX 01 01:19:53
  TRACK 43 AUDIO
    TITLE "Disc1Track41_43"
    INDEX 01 01:22:04
  TRACK 44 AUDIO
    TITLE "Disc1Track41_44"
    INDEX 01 01:23:49
